<svg xmlns="http://www.w3.org/2000/svg" viewBox="0 0 261.6 261.6"><defs><style>.cls-1{fill:#82b1ff;}.cls-2{fill:#3e7fdd;}.cls-3{fill:#ccc;}.cls-4{fill:#fff;}</style></defs><title>Asset 3</title><g id="Layer_2" data-name="Layer 2"><g id="OBJECTS"><g id="_Group_" data-name="&lt;Group&gt;"><path id="_Compound_Path_" data-name="&lt;Compound Path&gt;" class="cls-1" d="M105.5,180.52V155.66l-43,24.86V81.08l43,24.86V81.08l25.3,14.61V0a130.8,130.8,0,0,0,0,261.6V165.91Z"/><path id="_Compound_Path_2" data-name="&lt;Compound Path&gt;" class="cls-2" d="M130.8,0V95.69l39.26,22.68V76.63h29.07V185H170.06V143.23L130.8,165.91V261.6A130.8,130.8,0,0,0,130.8,0Z"/><path id="_Compound_Path_3" data-name="&lt;Compound Path&gt;" class="cls-3" d="M62.47,130.8v49.72l43-24.86v24.86l25.3-14.61,39.26-22.68V185h29.07V130.8Z"/><path id="_Compound_Path_4" data-name="&lt;Compound Path&gt;" class="cls-4" d="M105.5,105.94l-43-24.86V130.8H199.13V76.63H170.06v41.74L130.8,95.69,105.5,81.08Z"/></g></g></g></svg>