<svg xmlns="http://www.w3.org/2000/svg" viewBox="0 0 261.6 261.6"><defs><style>.cls-1{fill:#82b1ff;}.cls-2{fill:#3e7fdd;}.cls-3{fill:#ccc;}.cls-4{fill:#fff;}</style></defs><title>Asset 4</title><g id="Layer_2" data-name="Layer 2"><g id="OBJECTS"><g id="_Group_" data-name="&lt;Group&gt;"><path id="_Compound_Path_" data-name="&lt;Compound Path&gt;" class="cls-1" d="M91.53,143.23V185H62.47V76.63H91.53v41.74L130.8,95.69V0a130.8,130.8,0,0,0,0,261.6V165.91Z"/><path id="_Compound_Path_2" data-name="&lt;Compound Path&gt;" class="cls-2" d="M130.8,0V95.69l25.29-14.61v24.86l43-24.86v99.44l-43-24.86v24.86L130.8,165.91V261.6A130.8,130.8,0,0,0,130.8,0Z"/><path id="_Compound_Path_3" data-name="&lt;Compound Path&gt;" class="cls-3" d="M62.47,130.8V185H91.53V143.23l39.27,22.68,25.29,14.61V155.66l43,24.86V130.8Z"/><path id="_Compound_Path_4" data-name="&lt;Compound Path&gt;" class="cls-4" d="M91.53,76.63H62.47V130.8H199.13V81.08l-43,24.86V81.08L130.8,95.69,91.53,118.37Z"/></g></g></g></svg>